<?xml version="1.0" encoding="UTF-8"?>
<svg xmlns="http://www.w3.org/2000/svg" xmlns:xlink="http://www.w3.org/1999/xlink" width="216pt" height="99pt" viewBox="0 0 216 99" version="1.1">
<g id="surface1">
<path style="fill:none;stroke-width:0.8;stroke-linecap:butt;stroke-linejoin:round;stroke:rgb(18%,54.5%,34.1%);stroke-opacity:1;stroke-miterlimit:10;" d="M 208.340886 480.401142 L 190.645574 461.91286 " transform="matrix(1,0,0,-1,-181.278386,482.901142)"/>
<path style="fill:none;stroke-width:0.8;stroke-linecap:butt;stroke-linejoin:round;stroke:rgb(18%,54.5%,34.1%);stroke-opacity:1;stroke-miterlimit:10;" d="M 214.68073 462.967548 L 190.645574 461.91286 " transform="matrix(1,0,0,-1,-181.278386,482.901142)"/>
<path style="fill:none;stroke-width:0.8;stroke-linecap:butt;stroke-linejoin:round;stroke:rgb(18%,54.5%,34.1%);stroke-opacity:1;stroke-miterlimit:10;" d="M 214.68073 462.967548 L 208.079168 455.838642 " transform="matrix(1,0,0,-1,-181.278386,482.901142)"/>
<path style="fill:none;stroke-width:0.8;stroke-linecap:butt;stroke-linejoin:round;stroke:rgb(18%,54.5%,34.1%);stroke-opacity:1;stroke-miterlimit:10;" d="M 190.11823 443.424579 L 195.926824 425.990985 " transform="matrix(1,0,0,-1,-181.278386,482.901142)"/>
<path style="fill:none;stroke-width:0.8;stroke-linecap:butt;stroke-linejoin:round;stroke:rgb(18%,54.5%,34.1%);stroke-opacity:1;stroke-miterlimit:10;" d="M 195.926824 425.990985 L 208.606511 407.768329 " transform="matrix(1,0,0,-1,-181.278386,482.901142)"/>
<path style="fill:none;stroke-width:0.8;stroke-linecap:butt;stroke-linejoin:round;stroke:rgb(18%,54.5%,34.1%);stroke-opacity:1;stroke-miterlimit:10;" d="M 208.606511 407.768329 L 196.458074 407.768329 " transform="matrix(1,0,0,-1,-181.278386,482.901142)"/>
<path style="fill:none;stroke-width:0.8;stroke-linecap:butt;stroke-linejoin:round;stroke:rgb(18%,54.5%,34.1%);stroke-opacity:1;stroke-miterlimit:10;" d="M 208.606511 407.768329 L 183.778386 389.541767 " transform="matrix(1,0,0,-1,-181.278386,482.901142)"/>
<path style="fill:none;stroke-width:0.8;stroke-linecap:butt;stroke-linejoin:round;stroke:rgb(18%,54.5%,34.1%);stroke-opacity:1;stroke-miterlimit:10;" d="M 208.079168 455.838642 L 208.606511 407.768329 " transform="matrix(1,0,0,-1,-181.278386,482.901142)"/>
<path style="fill:none;stroke-width:0.8;stroke-linecap:butt;stroke-linejoin:round;stroke:rgb(18%,54.5%,34.1%);stroke-opacity:1;stroke-miterlimit:10;" d="M 195.926824 425.990985 L 208.079168 455.838642 " transform="matrix(1,0,0,-1,-181.278386,482.901142)"/>
<path style="fill:none;stroke-width:0.8;stroke-linecap:butt;stroke-linejoin:round;stroke:rgb(18%,54.5%,34.1%);stroke-opacity:1;stroke-miterlimit:10;" d="M 242.14948 473.00661 L 264.071355 461.647235 " transform="matrix(1,0,0,-1,-181.278386,482.901142)"/>
<path style="fill:none;stroke-width:0.8;stroke-linecap:butt;stroke-linejoin:round;stroke:rgb(18%,54.5%,34.1%);stroke-opacity:1;stroke-miterlimit:10;" d="M 252.981511 452.932392 L 242.14948 473.00661 " transform="matrix(1,0,0,-1,-181.278386,482.901142)"/>
<path style="fill:none;stroke-width:0.8;stroke-linecap:butt;stroke-linejoin:round;stroke:rgb(18%,54.5%,34.1%);stroke-opacity:1;stroke-miterlimit:10;" d="M 227.360418 465.080829 L 252.981511 452.932392 " transform="matrix(1,0,0,-1,-181.278386,482.901142)"/>
<path style="fill:none;stroke-width:0.8;stroke-linecap:butt;stroke-linejoin:round;stroke:rgb(18%,54.5%,34.1%);stroke-opacity:1;stroke-miterlimit:10;" d="M 252.981511 452.932392 L 214.68073 462.967548 " transform="matrix(1,0,0,-1,-181.278386,482.901142)"/>
<path style="fill:none;stroke-width:0.8;stroke-linecap:butt;stroke-linejoin:round;stroke:rgb(18%,54.5%,34.1%);stroke-opacity:1;stroke-miterlimit:10;" d="M 208.079168 455.838642 L 252.981511 452.932392 " transform="matrix(1,0,0,-1,-181.278386,482.901142)"/>
<path style="fill:none;stroke-width:0.8;stroke-linecap:butt;stroke-linejoin:round;stroke:rgb(18%,54.5%,34.1%);stroke-opacity:1;stroke-miterlimit:10;" d="M 242.415105 441.311298 L 208.079168 455.838642 " transform="matrix(1,0,0,-1,-181.278386,482.901142)"/>
<path style="fill:none;stroke-width:0.8;stroke-linecap:butt;stroke-linejoin:round;stroke:rgb(18%,54.5%,34.1%);stroke-opacity:1;stroke-miterlimit:10;" d="M 208.606511 407.768329 L 242.415105 441.311298 " transform="matrix(1,0,0,-1,-181.278386,482.901142)"/>
<path style="fill:none;stroke-width:0.8;stroke-linecap:butt;stroke-linejoin:round;stroke:rgb(18%,54.5%,34.1%);stroke-opacity:1;stroke-miterlimit:10;" d="M 242.415105 441.311298 L 226.567449 414.635517 " transform="matrix(1,0,0,-1,-181.278386,482.901142)"/>
<path style="fill:none;stroke-width:0.8;stroke-linecap:butt;stroke-linejoin:round;stroke:rgb(18%,54.5%,34.1%);stroke-opacity:1;stroke-miterlimit:10;" d="M 247.169011 413.576923 L 242.415105 441.311298 " transform="matrix(1,0,0,-1,-181.278386,482.901142)"/>
<path style="fill:none;stroke-width:0.8;stroke-linecap:butt;stroke-linejoin:round;stroke:rgb(18%,54.5%,34.1%);stroke-opacity:1;stroke-miterlimit:10;" d="M 247.169011 413.576923 L 261.696355 417.803485 " transform="matrix(1,0,0,-1,-181.278386,482.901142)"/>
<path style=" stroke:none;fill-rule:evenodd;fill:rgb(0%,0%,0%);fill-opacity:1;" d="M 5.621094 3.292969 C 5.621094 0.890625 2.019531 0.890625 2.019531 3.292969 C 2.019531 5.691406 5.621094 5.691406 5.621094 3.292969 Z "/>
<path style=" stroke:none;fill-rule:evenodd;fill:rgb(0%,0%,0%);fill-opacity:1;" d="M 28.863281 2.5 C 28.863281 0.101562 25.265625 0.101562 25.265625 2.5 C 25.265625 4.898438 28.863281 4.898438 28.863281 2.5 Z "/>
<path style=" stroke:none;fill-rule:evenodd;fill:rgb(0%,0%,0%);fill-opacity:1;" d="M 35.203125 19.933594 C 35.203125 17.53125 31.601562 17.53125 31.601562 19.933594 C 31.601562 22.332031 35.203125 22.332031 35.203125 19.933594 Z "/>
<path style=" stroke:none;fill-rule:evenodd;fill:rgb(0%,0%,0%);fill-opacity:1;" d="M 11.167969 20.988281 C 11.167969 18.589844 7.566406 18.589844 7.566406 20.988281 C 7.566406 23.390625 11.167969 23.390625 11.167969 20.988281 Z "/>
<path style=" stroke:none;fill-rule:evenodd;fill:rgb(0%,0%,0%);fill-opacity:1;" d="M 28.601562 27.0625 C 28.601562 24.664062 25 24.664062 25 27.0625 C 25 29.464844 28.601562 29.464844 28.601562 27.0625 Z "/>
<path style=" stroke:none;fill-rule:evenodd;fill:rgb(0%,0%,0%);fill-opacity:1;" d="M 10.640625 39.476562 C 10.640625 37.078125 7.039062 37.078125 7.039062 39.476562 C 7.039062 41.878906 10.640625 41.878906 10.640625 39.476562 Z "/>
<path style=" stroke:none;fill-rule:evenodd;fill:rgb(0%,0%,0%);fill-opacity:1;" d="M 5.09375 57.703125 C 5.09375 55.300781 1.492188 55.300781 1.492188 57.703125 C 1.492188 60.101562 5.09375 60.101562 5.09375 57.703125 Z "/>
<path style=" stroke:none;fill-rule:evenodd;fill:rgb(0%,0%,0%);fill-opacity:1;" d="M 16.449219 56.910156 C 16.449219 54.507812 12.851562 54.507812 12.851562 56.910156 C 12.851562 59.308594 16.449219 59.308594 16.449219 56.910156 Z "/>
<path style=" stroke:none;fill-rule:evenodd;fill:rgb(0%,0%,0%);fill-opacity:1;" d="M 16.976562 75.132812 C 16.976562 72.734375 13.378906 72.734375 13.378906 75.132812 C 13.378906 77.535156 16.976562 77.535156 16.976562 75.132812 Z "/>
<path style=" stroke:none;fill-rule:evenodd;fill:rgb(0%,0%,0%);fill-opacity:1;" d="M 4.300781 93.359375 C 4.300781 90.960938 0.699219 90.960938 0.699219 93.359375 C 0.699219 95.757812 4.300781 95.757812 4.300781 93.359375 Z "/>
<path style=" stroke:none;fill-rule:evenodd;fill:rgb(0%,0%,0%);fill-opacity:1;" d="M 41.011719 93.359375 C 41.011719 90.960938 37.414062 90.960938 37.414062 93.359375 C 37.414062 95.757812 41.011719 95.757812 41.011719 93.359375 Z "/>
<path style=" stroke:none;fill-rule:evenodd;fill:rgb(0%,0%,0%);fill-opacity:1;" d="M 29.128906 75.132812 C 29.128906 72.734375 25.527344 72.734375 25.527344 75.132812 C 25.527344 77.535156 29.128906 77.535156 29.128906 75.132812 Z "/>
<path style=" stroke:none;fill-rule:evenodd;fill:rgb(0%,0%,0%);fill-opacity:1;" d="M 47.089844 68.265625 C 47.089844 65.867188 43.488281 65.867188 43.488281 68.265625 C 43.488281 70.667969 47.089844 70.667969 47.089844 68.265625 Z "/>
<path style=" stroke:none;fill-rule:evenodd;fill:rgb(0%,0%,0%);fill-opacity:1;" d="M 67.691406 69.324219 C 67.691406 66.921875 64.089844 66.921875 64.089844 69.324219 C 64.089844 71.722656 67.691406 71.722656 67.691406 69.324219 Z "/>
<path style=" stroke:none;fill-rule:evenodd;fill:rgb(0%,0%,0%);fill-opacity:1;" d="M 77.199219 83.058594 C 77.199219 80.660156 73.597656 80.660156 73.597656 83.058594 C 73.597656 85.457031 77.199219 85.457031 77.199219 83.058594 Z "/>
<path style=" stroke:none;fill-rule:evenodd;fill:rgb(0%,0%,0%);fill-opacity:1;" d="M 82.21875 65.097656 C 82.21875 62.699219 78.617188 62.699219 78.617188 65.097656 C 78.617188 67.496094 82.21875 67.496094 82.21875 65.097656 Z "/>
<path style=" stroke:none;fill-rule:evenodd;fill:rgb(0%,0%,0%);fill-opacity:1;" d="M 62.9375 41.589844 C 62.9375 39.191406 59.335938 39.191406 59.335938 41.589844 C 59.335938 43.992188 62.9375 43.992188 62.9375 41.589844 Z "/>
<path style=" stroke:none;fill-rule:evenodd;fill:rgb(0%,0%,0%);fill-opacity:1;" d="M 73.5 29.96875 C 73.5 27.570312 69.902344 27.570312 69.902344 29.96875 C 69.902344 32.367188 73.5 32.367188 73.5 29.96875 Z "/>
<path style=" stroke:none;fill-rule:evenodd;fill:rgb(0%,0%,0%);fill-opacity:1;" d="M 84.59375 21.253906 C 84.59375 18.851562 80.996094 18.851562 80.996094 21.253906 C 80.996094 23.652344 84.59375 23.652344 84.59375 21.253906 Z "/>
<path style=" stroke:none;fill-rule:evenodd;fill:rgb(0%,0%,0%);fill-opacity:1;" d="M 77.199219 4.347656 C 77.199219 1.949219 73.597656 1.949219 73.597656 4.347656 C 73.597656 6.75 77.199219 6.75 77.199219 4.347656 Z "/>
<path style=" stroke:none;fill-rule:evenodd;fill:rgb(0%,0%,0%);fill-opacity:1;" d="M 62.671875 9.894531 C 62.671875 7.496094 59.070312 7.496094 59.070312 9.894531 C 59.070312 12.296875 62.671875 12.296875 62.671875 9.894531 Z "/>
<path style=" stroke:none;fill-rule:evenodd;fill:rgb(0%,0%,0%);fill-opacity:1;" d="M 47.878906 17.820312 C 47.878906 15.417969 44.28125 15.417969 44.28125 17.820312 C 44.28125 20.21875 47.878906 20.21875 47.878906 17.820312 Z "/>
<path style="fill:none;stroke-width:0.8;stroke-linecap:butt;stroke-linejoin:round;stroke:rgb(0%,0%,0%);stroke-opacity:1;stroke-miterlimit:10;" d="M 214.68073 462.967548 L 208.340886 480.401142 " transform="matrix(1,0,0,-1,-181.278386,482.901142)"/>
<path style="fill:none;stroke-width:0.8;stroke-linecap:butt;stroke-linejoin:round;stroke:rgb(0%,0%,0%);stroke-opacity:1;stroke-miterlimit:10;" d="M 208.340886 480.401142 L 185.098699 479.608173 " transform="matrix(1,0,0,-1,-181.278386,482.901142)"/>
<path style="fill:none;stroke-width:0.8;stroke-linecap:butt;stroke-linejoin:round;stroke:rgb(0%,0%,0%);stroke-opacity:1;stroke-miterlimit:10;" d="M 185.098699 479.608173 L 190.645574 461.91286 " transform="matrix(1,0,0,-1,-181.278386,482.901142)"/>
<path style="fill:none;stroke-width:0.8;stroke-linecap:butt;stroke-linejoin:round;stroke:rgb(0%,0%,0%);stroke-opacity:1;stroke-miterlimit:10;" d="M 190.645574 461.91286 L 208.079168 455.838642 " transform="matrix(1,0,0,-1,-181.278386,482.901142)"/>
<path style="fill:none;stroke-width:0.8;stroke-linecap:butt;stroke-linejoin:round;stroke:rgb(0%,0%,0%);stroke-opacity:1;stroke-miterlimit:10;" d="M 208.079168 455.838642 L 190.11823 443.424579 " transform="matrix(1,0,0,-1,-181.278386,482.901142)"/>
<path style="fill:none;stroke-width:0.8;stroke-linecap:butt;stroke-linejoin:round;stroke:rgb(0%,0%,0%);stroke-opacity:1;stroke-miterlimit:10;" d="M 190.11823 443.424579 L 184.571355 425.198017 " transform="matrix(1,0,0,-1,-181.278386,482.901142)"/>
<path style="fill:none;stroke-width:0.8;stroke-linecap:butt;stroke-linejoin:round;stroke:rgb(0%,0%,0%);stroke-opacity:1;stroke-miterlimit:10;" d="M 184.571355 425.198017 L 195.926824 425.990985 " transform="matrix(1,0,0,-1,-181.278386,482.901142)"/>
<path style="fill:none;stroke-width:0.8;stroke-linecap:butt;stroke-linejoin:round;stroke:rgb(0%,0%,0%);stroke-opacity:1;stroke-miterlimit:10;" d="M 195.926824 425.990985 L 196.458074 407.768329 " transform="matrix(1,0,0,-1,-181.278386,482.901142)"/>
<path style="fill:none;stroke-width:0.8;stroke-linecap:butt;stroke-linejoin:round;stroke:rgb(0%,0%,0%);stroke-opacity:1;stroke-miterlimit:10;" d="M 196.458074 407.768329 L 183.778386 389.541767 " transform="matrix(1,0,0,-1,-181.278386,482.901142)"/>
<path style="fill:none;stroke-width:0.8;stroke-linecap:butt;stroke-linejoin:round;stroke:rgb(0%,0%,0%);stroke-opacity:1;stroke-miterlimit:10;" d="M 183.778386 389.541767 L 220.49323 389.541767 " transform="matrix(1,0,0,-1,-181.278386,482.901142)"/>
<path style="fill:none;stroke-width:0.8;stroke-linecap:butt;stroke-linejoin:round;stroke:rgb(0%,0%,0%);stroke-opacity:1;stroke-miterlimit:10;" d="M 220.49323 389.541767 L 208.606511 407.768329 " transform="matrix(1,0,0,-1,-181.278386,482.901142)"/>
<path style="fill:none;stroke-width:0.8;stroke-linecap:butt;stroke-linejoin:round;stroke:rgb(0%,0%,0%);stroke-opacity:1;stroke-miterlimit:10;" d="M 208.606511 407.768329 L 226.567449 414.635517 " transform="matrix(1,0,0,-1,-181.278386,482.901142)"/>
<path style="fill:none;stroke-width:0.8;stroke-linecap:butt;stroke-linejoin:round;stroke:rgb(0%,0%,0%);stroke-opacity:1;stroke-miterlimit:10;" d="M 226.567449 414.635517 L 247.169011 413.576923 " transform="matrix(1,0,0,-1,-181.278386,482.901142)"/>
<path style="fill:none;stroke-width:0.8;stroke-linecap:butt;stroke-linejoin:round;stroke:rgb(0%,0%,0%);stroke-opacity:1;stroke-miterlimit:10;" d="M 247.169011 413.576923 L 256.676824 399.842548 " transform="matrix(1,0,0,-1,-181.278386,482.901142)"/>
<path style="fill:none;stroke-width:0.8;stroke-linecap:butt;stroke-linejoin:round;stroke:rgb(0%,0%,0%);stroke-opacity:1;stroke-miterlimit:10;" d="M 256.676824 399.842548 L 261.696355 417.803485 " transform="matrix(1,0,0,-1,-181.278386,482.901142)"/>
<path style="fill:none;stroke-width:0.8;stroke-linecap:butt;stroke-linejoin:round;stroke:rgb(0%,0%,0%);stroke-opacity:1;stroke-miterlimit:10;" d="M 261.696355 417.803485 L 242.415105 441.311298 " transform="matrix(1,0,0,-1,-181.278386,482.901142)"/>
<path style="fill:none;stroke-width:0.8;stroke-linecap:butt;stroke-linejoin:round;stroke:rgb(0%,0%,0%);stroke-opacity:1;stroke-miterlimit:10;" d="M 242.415105 441.311298 L 252.981511 452.932392 " transform="matrix(1,0,0,-1,-181.278386,482.901142)"/>
<path style="fill:none;stroke-width:0.8;stroke-linecap:butt;stroke-linejoin:round;stroke:rgb(0%,0%,0%);stroke-opacity:1;stroke-miterlimit:10;" d="M 252.981511 452.932392 L 264.071355 461.647235 " transform="matrix(1,0,0,-1,-181.278386,482.901142)"/>
<path style="fill:none;stroke-width:0.8;stroke-linecap:butt;stroke-linejoin:round;stroke:rgb(0%,0%,0%);stroke-opacity:1;stroke-miterlimit:10;" d="M 264.071355 461.647235 L 256.676824 478.553485 " transform="matrix(1,0,0,-1,-181.278386,482.901142)"/>
<path style="fill:none;stroke-width:0.8;stroke-linecap:butt;stroke-linejoin:round;stroke:rgb(0%,0%,0%);stroke-opacity:1;stroke-miterlimit:10;" d="M 256.676824 478.553485 L 242.14948 473.00661 L 227.360418 465.080829 L 214.68073 462.967548 " transform="matrix(1,0,0,-1,-181.278386,482.901142)"/>
<path style=" stroke:none;fill-rule:evenodd;fill:rgb(0%,0%,0%);fill-opacity:1;" d="M 103.957031 3.054688 C 103.957031 0.652344 100.359375 0.652344 100.359375 3.054688 C 100.359375 5.453125 103.957031 5.453125 103.957031 3.054688 Z "/>
<path style=" stroke:none;fill-rule:evenodd;fill:rgb(0%,0%,0%);fill-opacity:1;" d="M 170.195312 69.289062 C 170.195312 66.886719 166.59375 66.886719 166.59375 69.289062 C 166.59375 71.6875 170.195312 71.6875 170.195312 69.289062 Z "/>
<path style=" stroke:none;fill-rule:evenodd;fill:rgb(0%,0%,0%);fill-opacity:1;" d="M 144.539062 7.472656 C 144.539062 5.070312 140.941406 5.070312 140.941406 7.472656 C 140.941406 9.871094 144.539062 9.871094 144.539062 7.472656 Z "/>
<path style=" stroke:none;fill-rule:evenodd;fill:rgb(0%,0%,0%);fill-opacity:1;" d="M 122.460938 73.707031 C 122.460938 71.308594 118.859375 71.308594 118.859375 73.707031 C 118.859375 76.105469 122.460938 76.105469 122.460938 73.707031 Z "/>
<path style=" stroke:none;fill-rule:evenodd;fill:rgb(0%,0%,0%);fill-opacity:1;" d="M 103.957031 47.210938 C 103.957031 44.808594 100.359375 44.808594 100.359375 47.210938 C 100.359375 49.609375 103.957031 49.609375 103.957031 47.210938 Z "/>
<path style=" stroke:none;fill-rule:evenodd;fill:rgb(0%,0%,0%);fill-opacity:1;" d="M 214.351562 3.054688 C 214.351562 0.652344 210.75 0.652344 210.75 3.054688 C 210.75 5.453125 214.351562 5.453125 214.351562 3.054688 Z "/>
<path style="fill:none;stroke-width:0.8;stroke-linecap:butt;stroke-linejoin:round;stroke:rgb(0%,0%,0%);stroke-opacity:1;stroke-miterlimit:10;" d="M 283.438543 479.846454 L 349.672918 413.612079 " transform="matrix(1,0,0,-1,-181.278386,482.901142)"/>
<path style="fill:none;stroke-width:0.8;stroke-linecap:butt;stroke-linejoin:round;stroke:rgb(0%,0%,0%);stroke-opacity:1;stroke-miterlimit:10;" d="M 283.438543 435.690204 L 393.829168 479.846454 " transform="matrix(1,0,0,-1,-181.278386,482.901142)"/>
<path style="fill:none;stroke-width:0.8;stroke-linecap:butt;stroke-linejoin:round;stroke:rgb(0%,0%,0%);stroke-opacity:1;stroke-miterlimit:10;" d="M 324.016668 475.428485 L 301.938543 409.19411 " transform="matrix(1,0,0,-1,-181.278386,482.901142)"/>
<path style="fill:none;stroke-width:0.8;stroke-linecap:butt;stroke-linejoin:round;stroke:rgb(0%,0%,0%);stroke-opacity:1;stroke-miterlimit:10;" d="M 314.977605 448.307392 L 359.797918 439.971454 " transform="matrix(1,0,0,-1,-181.278386,482.901142)"/>
<path style=" stroke:none;fill-rule:evenodd;fill:rgb(0%,0%,0%);fill-opacity:1;" d="M 180.316406 42.929688 C 180.316406 40.527344 176.71875 40.527344 176.71875 42.929688 C 176.71875 45.328125 180.316406 45.328125 180.316406 42.929688 Z "/>
<path style=" stroke:none;fill-rule:evenodd;fill:rgb(100%,0%,0%);fill-opacity:1;" d="M 135.5 34.59375 C 135.5 32.191406 131.898438 32.191406 131.898438 34.59375 C 131.898438 36.992188 135.5 36.992188 135.5 34.59375 Z "/>
<path style="fill:none;stroke-width:0.8;stroke-linecap:butt;stroke-linejoin:round;stroke:rgb(0%,0%,0%);stroke-opacity:1;stroke-miterlimit:10;" d="M 354.33698 430.873798 L 321.219793 386.717548 " transform="matrix(1,0,0,-1,-181.278386,482.901142)"/>
<path style="fill:none;stroke-width:0.8;stroke-linecap:butt;stroke-linejoin:round;stroke:rgb(0%,0%,0%);stroke-opacity:1;stroke-miterlimit:10;" d="M 294.477605 424.651142 L 360.71198 391.533954 " transform="matrix(1,0,0,-1,-181.278386,482.901142)"/>
<path style=" stroke:none;fill-rule:evenodd;fill:rgb(100%,0%,0%);fill-opacity:1;" d="M 125.8125 63.65625 C 125.8125 61.253906 122.210938 61.253906 122.210938 63.65625 C 122.210938 66.054688 125.8125 66.054688 125.8125 63.65625 Z "/>
<path style=" stroke:none;fill-rule:evenodd;fill:rgb(100%,0%,0%);fill-opacity:1;" d="M 165.460938 64.554688 C 165.460938 62.15625 161.863281 62.15625 161.863281 64.554688 C 161.863281 66.957031 165.460938 66.957031 165.460938 64.554688 Z "/>
<path style=" stroke:none;fill-rule:evenodd;fill:rgb(100%,0%,0%);fill-opacity:1;" d="M 155.140625 78.320312 C 155.140625 75.917969 151.539062 75.917969 151.539062 78.320312 C 151.539062 80.71875 155.140625 80.71875 155.140625 78.320312 Z "/>
<path style=" stroke:none;fill-rule:evenodd;fill:rgb(0%,0%,0%);fill-opacity:1;" d="M 114.996094 58.25 C 114.996094 55.847656 111.398438 55.847656 111.398438 58.25 C 111.398438 60.648438 114.996094 60.648438 114.996094 58.25 Z "/>
<path style=" stroke:none;fill-rule:evenodd;fill:rgb(0%,0%,0%);fill-opacity:1;" d="M 141.742188 96.183594 C 141.742188 93.785156 138.140625 93.785156 138.140625 96.183594 C 138.140625 98.585938 141.742188 98.585938 141.742188 96.183594 Z "/>
<path style=" stroke:none;fill-rule:evenodd;fill:rgb(0%,0%,0%);fill-opacity:1;" d="M 181.234375 91.367188 C 181.234375 88.964844 177.632812 88.964844 177.632812 91.367188 C 177.632812 93.765625 181.234375 93.765625 181.234375 91.367188 Z "/>
<path style=" stroke:none;fill-rule:evenodd;fill:rgb(0%,0%,0%);fill-opacity:1;" d="M 174.859375 52.03125 C 174.859375 49.628906 171.257812 49.628906 171.257812 52.03125 C 171.257812 54.429688 174.859375 54.429688 174.859375 52.03125 Z "/>
</g>
</svg>
